<?xml version="1.0" encoding="UTF-8"?>
<!DOCTYPE svg PUBLIC "-//W3C//DTD SVG 1.1//EN" "http://www.w3.org/Graphics/SVG/1.1/DTD/svg11.dtd">
<svg xmlns="http://www.w3.org/2000/svg" version="1.1" width="488px" height="154px" style="shape-rendering:geometricPrecision; text-rendering:geometricPrecision; image-rendering:optimizeQuality; fill-rule:evenodd; clip-rule:evenodd" xmlns:xlink="http://www.w3.org/1999/xlink">
<g><path style="opacity:1" fill="#fffefe" d="M -0.5,-0.5 C 162.167,-0.5 324.833,-0.5 487.5,-0.5C 487.5,50.8333 487.5,102.167 487.5,153.5C 324.833,153.5 162.167,153.5 -0.5,153.5C -0.5,102.167 -0.5,50.8333 -0.5,-0.5 Z"/></g>
<g><path style="opacity:1" fill="#ffce14" d="M 98.5,24.5 C 75.4409,34.3573 52.1075,43.6907 28.5,52.5C 28.5,51.5 28.5,50.5 28.5,49.5C 30.838,37.9697 34.1713,26.803 38.5,16C 58.5,15.3333 78.5,15.3333 98.5,16C 100.694,18.6949 100.694,21.5283 98.5,24.5 Z"/></g>
<g><path style="opacity:1" fill="#ffd321" d="M 98.5,24.5 C 97.1667,29.8333 95.8333,35.1667 94.5,40.5C 93.1667,40.5 91.8333,40.5 90.5,40.5C 90.5,41.8333 90.5,43.1667 90.5,44.5C 87.6887,44.5713 85.022,45.238 82.5,46.5C 63.4256,54.7266 44.2589,62.7266 25,70.5C 24.5,70.1667 24,69.8333 23.5,69.5C 24.376,68.7492 25.376,68.2492 26.5,68C 24.8934,66.951 24.2267,65.451 24.5,63.5C 25.2612,58.5634 26.5946,53.8967 28.5,49.5C 28.5,50.5 28.5,51.5 28.5,52.5C 52.1075,43.6907 75.4409,34.3573 98.5,24.5 Z"/></g>
<g><path style="opacity:1" fill="#ffdb3c" d="M 133.5,48.5 C 120.78,53.8386 108.114,59.1719 95.5,64.5C 94.7025,64.0431 94.3691,63.3764 94.5,62.5C 95.8068,56.4706 97.3068,50.4706 99,44.5C 99.8333,43.6667 100.667,42.8333 101.5,42C 111.833,41.3333 122.167,41.3333 132.5,42C 134.608,44.0164 134.942,46.1831 133.5,48.5 Z"/></g>
<g><path style="opacity:1" fill="#ffd936" d="M 94.5,40.5 C 90.8372,51.6602 87.6706,62.9935 85,74.5C 84.1667,75.3333 83.3333,76.1667 82.5,77C 62.8333,77.6667 43.1667,77.6667 23.5,77C 22.1955,76.196 21.5288,75.0293 21.5,73.5C 22.2134,69.9566 23.2134,66.6233 24.5,63.5C 24.2267,65.451 24.8934,66.951 26.5,68C 25.376,68.2492 24.376,68.7492 23.5,69.5C 24,69.8333 24.5,70.1667 25,70.5C 44.2589,62.7266 63.4256,54.7266 82.5,46.5C 85.022,45.238 87.6887,44.5713 90.5,44.5C 90.5,43.1667 90.5,41.8333 90.5,40.5C 91.8333,40.5 93.1667,40.5 94.5,40.5 Z"/></g>
<g><path style="opacity:1" fill="#ffc914" d="M 421.5,51.5 C 425.167,51.5 428.833,51.5 432.5,51.5C 432.5,67.5 432.5,83.5 432.5,99.5C 428.833,99.5 425.167,99.5 421.5,99.5C 421.649,98.448 421.483,97.448 421,96.5C 415.034,100.803 408.534,101.636 401.5,99C 395.873,94.6568 393.206,88.8235 393.5,81.5C 394.113,67.3487 401.446,61.5154 415.5,64C 417.587,64.7922 419.421,65.9588 421,67.5C 421.499,62.1771 421.666,56.8437 421.5,51.5 Z"/></g>
<g><path style="opacity:1" fill="#ffc912" d="M 185.5,67.5 C 185.5,68.8333 185.5,70.1667 185.5,71.5C 181.833,71.5 178.167,71.5 174.5,71.5C 174.654,67.9746 173.321,65.1413 170.5,63C 157.718,58.3745 151.051,62.7078 150.5,76C 150.901,90.7077 157.901,95.0411 171.5,89C 173.585,86.5806 174.585,83.7472 174.5,80.5C 178.5,80.5 182.5,80.5 186.5,80.5C 186.418,90.8491 181.418,97.3491 171.5,100C 145.327,102.826 134.827,91.3262 140,65.5C 144.553,56.1383 152.053,51.8049 162.5,52.5C 169.715,51.8839 176.048,53.8839 181.5,58.5C 183.658,61.1485 184.992,64.1485 185.5,67.5 Z"/></g>
<g><path style="opacity:1" fill="#ffc913" d="M 295.5,52.5 C 300.844,52.334 306.177,52.5006 311.5,53C 320.567,54.8963 325.567,60.3963 326.5,69.5C 322.774,69.8226 319.107,69.4892 315.5,68.5C 314.363,65.5302 312.363,63.3635 309.5,62C 294.22,59.6162 288.053,66.1162 291,81.5C 291.313,85.9654 293.479,89.1321 297.5,91C 301.5,91.6667 305.5,91.6667 309.5,91C 312.837,89.1745 314.837,86.3412 315.5,82.5C 310.208,81.5052 304.875,81.1718 299.5,81.5C 299.5,79.1667 299.5,76.8333 299.5,74.5C 308.5,74.5 317.5,74.5 326.5,74.5C 326.5,82.8333 326.5,91.1667 326.5,99.5C 323.167,99.5 319.833,99.5 316.5,99.5C 317.187,93.4012 315.854,92.9012 312.5,98C 291.486,105.154 280.152,97.6544 278.5,75.5C 278.609,63.5807 284.275,55.914 295.5,52.5 Z"/></g>
<g><path style="opacity:1" fill="#ffca13" d="M 191.5,53.5 C 195.5,53.5 199.5,53.5 203.5,53.5C 203.5,55.8333 203.5,58.1667 203.5,60.5C 199.5,60.5 195.5,60.5 191.5,60.5C 191.5,58.1667 191.5,55.8333 191.5,53.5 Z"/></g>
<g><path style="opacity:1" fill="#ffca13" d="M 376.5,53.5 C 380.5,53.5 384.5,53.5 388.5,53.5C 388.5,55.8333 388.5,58.1667 388.5,60.5C 384.5,60.5 380.5,60.5 376.5,60.5C 376.5,58.1667 376.5,55.8333 376.5,53.5 Z"/></g>
<g><path style="opacity:1" fill="#ffca14" d="M 218.5,55.5 C 220.5,55.5 222.5,55.5 224.5,55.5C 224.5,58.5 224.5,61.5 224.5,64.5C 227.833,64.5 231.167,64.5 234.5,64.5C 234.5,67.1667 234.5,69.8333 234.5,72.5C 231.167,72.5 227.833,72.5 224.5,72.5C 224.5,78.8333 224.5,85.1667 224.5,91.5C 227.5,91.5 230.5,91.5 233.5,91.5C 233.5,94.1667 233.5,96.8333 233.5,99.5C 229.154,99.6657 224.821,99.499 220.5,99C 216.605,98.0668 214.438,95.5668 214,91.5C 213.5,85.1754 213.334,78.8421 213.5,72.5C 211.5,72.5 209.5,72.5 207.5,72.5C 207.201,70.396 207.534,68.396 208.5,66.5C 213.874,64.7932 217.207,61.1265 218.5,55.5 Z"/></g>
<g><path style="opacity:1" fill="#ffdf47" d="M 133.5,48.5 C 131.337,57.1525 129.17,65.8192 127,74.5C 126.167,75.3333 125.333,76.1667 124.5,77C 113.818,77.8324 103.151,77.6657 92.5,76.5C 91.254,71.505 91.9207,66.8383 94.5,62.5C 94.3691,63.3764 94.7025,64.0431 95.5,64.5C 108.114,59.1719 120.78,53.8386 133.5,48.5 Z"/></g>
<g><path style="opacity:1" fill="#ffc912" d="M 475.5,84.5 C 466.833,84.5 458.167,84.5 449.5,84.5C 449.263,85.791 449.596,86.791 450.5,87.5C 454.61,94.812 459.61,95.312 465.5,89C 468.817,88.5017 472.15,88.335 475.5,88.5C 475.319,93.8526 472.652,97.3526 467.5,99C 445.382,104.211 436.215,95.7114 440,73.5C 445.565,64.1492 453.731,60.9825 464.5,64C 473.699,67.7062 477.366,74.5395 475.5,84.5 Z"/></g>
<g><path style="opacity:1" fill="#ffca1f" d="M 192.5,64.5 C 196.167,64.5 199.833,64.5 203.5,64.5C 203.5,76.1667 203.5,87.8333 203.5,99.5C 199.833,99.5 196.167,99.5 192.5,99.5C 192.5,87.8333 192.5,76.1667 192.5,64.5 Z"/></g>
<g><path style="opacity:1" fill="#ffca18" d="M 333.5,64.5 C 337.167,64.5 340.833,64.5 344.5,64.5C 344.334,72.1739 344.5,79.8406 345,87.5C 347.053,91.2916 350.219,92.4582 354.5,91C 356.049,89.786 357.215,88.286 358,86.5C 358.5,79.1742 358.666,71.8409 358.5,64.5C 362.167,64.5 365.833,64.5 369.5,64.5C 369.5,76.1667 369.5,87.8333 369.5,99.5C 365.833,99.5 362.167,99.5 358.5,99.5C 358.649,98.448 358.483,97.448 358,96.5C 351.248,101.416 344.248,101.749 337,97.5C 335.249,95.5101 334.249,93.1768 334,90.5C 333.5,81.8397 333.334,73.1731 333.5,64.5 Z"/></g>
<g><path style="opacity:1" fill="#ffca1f" d="M 377.5,64.5 C 381.167,64.5 384.833,64.5 388.5,64.5C 388.5,76.1667 388.5,87.8333 388.5,99.5C 384.833,99.5 381.167,99.5 377.5,99.5C 377.5,87.8333 377.5,76.1667 377.5,64.5 Z"/></g>
<g><path style="opacity:1" fill="#ffca18" d="M 236.5,64.5 C 240.437,64.2065 244.27,64.5399 248,65.5C 250.344,73.3688 253.178,81.0355 256.5,88.5C 259.43,80.8774 262.263,73.2107 265,65.5C 268.455,64.2086 271.955,64.2086 275.5,65.5C 270.826,80.0239 265.659,94.3573 260,108.5C 257.621,110.884 254.787,112.384 251.5,113C 247.179,113.499 242.846,113.666 238.5,113.5C 238.5,110.5 238.5,107.5 238.5,104.5C 242.846,104.666 247.179,104.499 251.5,104C 254.684,99.4775 253.35,97.6442 247.5,98.5C 244.233,87.0326 240.566,75.6992 236.5,64.5 Z"/></g>
<g><path style="opacity:1" fill="#fffcf5" d="M 454.5,70.5 C 460.932,69.6124 464.599,72.279 465.5,78.5C 460.167,78.5 454.833,78.5 449.5,78.5C 450.166,75.1597 451.833,72.493 454.5,70.5 Z"/></g>
<g><path style="opacity:1" fill="#ffeeb1" d="M 185.5,67.5 C 186.451,68.9187 186.784,70.5853 186.5,72.5C 182.298,72.8168 178.298,72.4834 174.5,71.5C 178.167,71.5 181.833,71.5 185.5,71.5C 185.5,70.1667 185.5,68.8333 185.5,67.5 Z"/></g>
<g><path style="opacity:1" fill="#fffdf8" d="M 410.5,71.5 C 421.101,71.8222 424.601,77.1555 421,87.5C 417.574,92.4384 413.074,93.6051 407.5,91C 404.671,86.5957 403.837,81.7624 405,76.5C 406.107,73.887 407.94,72.2203 410.5,71.5 Z"/></g>
<g><path style="opacity:1" fill="#ffefb8" d="M 475.5,84.5 C 466.95,84.8452 458.617,85.8452 450.5,87.5C 449.596,86.791 449.263,85.791 449.5,84.5C 458.167,84.5 466.833,84.5 475.5,84.5 Z"/></g>
<g><path style="opacity:1" fill="#ffe556" d="M 121.5,87.5 C 121.67,88.8221 121.337,89.9887 120.5,91C 97.5641,100.389 74.7308,109.889 52,119.5C 51.5357,118.906 51.369,118.239 51.5,117.5C 53.7164,108.074 56.2164,98.741 59,89.5C 59.5,87.6667 60.6667,86.5 62.5,86C 81.5,85.3333 100.5,85.3333 119.5,86C 120.416,86.2784 121.082,86.7784 121.5,87.5 Z"/></g>
<g><path style="opacity:1" fill="#ffdf45" d="M 50.5,98.5 C 43.3085,101.592 35.9751,104.425 28.5,107C 29.1667,107.333 29.8333,107.667 30.5,108C 26.5,109 22.5,110 18.5,111C 19.1667,111.333 19.8333,111.667 20.5,112C 19,112.167 17.5,112.333 16,112.5C 14.0145,112.431 12.5145,111.765 11.5,110.5C 13.2757,104.6 14.7757,98.6005 16,92.5C 16.5163,89.9664 17.683,87.7998 19.5,86C 29.8333,85.3333 40.1667,85.3333 50.5,86C 51.8941,86.956 52.5607,88.2894 52.5,90C 51.7245,92.8224 51.0579,95.6557 50.5,98.5 Z"/></g>
<g><path style="opacity:1" fill="#ffea61" d="M 121.5,87.5 C 122.124,87.9169 122.457,88.5836 122.5,89.5C 119.825,98.5225 117.158,107.522 114.5,116.5C 91.2643,126.139 67.9309,135.472 44.5,144.5C 46.0734,135.203 48.4068,126.203 51.5,117.5C 51.369,118.239 51.5357,118.906 52,119.5C 74.7308,109.889 97.5641,100.389 120.5,91C 121.337,89.9887 121.67,88.8221 121.5,87.5 Z"/></g>
<g><path style="opacity:1" fill="#ffe354" d="M 50.5,98.5 C 48.4796,105.095 46.6462,111.762 45,118.5C 44.5,119.667 43.6667,120.5 42.5,121C 32.1667,121.667 21.8333,121.667 11.5,121C 9.16042,117.517 9.16042,114.017 11.5,110.5C 12.5145,111.765 14.0145,112.431 16,112.5C 17.5,112.333 19,112.167 20.5,112C 19.8333,111.667 19.1667,111.333 18.5,111C 22.5,110 26.5,109 30.5,108C 29.8333,107.667 29.1667,107.333 28.5,107C 35.9751,104.425 43.3085,101.592 50.5,98.5 Z"/></g>
<g><path style="opacity:1" fill="#ffef71" d="M 114.5,116.5 C 112.192,126.875 109.192,137.042 105.5,147C 85.5,147.667 65.5,147.667 45.5,147C 44.7476,146.329 44.4142,145.496 44.5,144.5C 67.9309,135.472 91.2643,126.139 114.5,116.5 Z"/></g>
</svg>
